<svg width="164" height="150" viewBox="0 0 164 150" fill="none" xmlns="http://www.w3.org/2000/svg">
<g filter="url(#filter0_i_443_134)">
<path d="M8.1 113C14.3 106.7 20.25 100.65 25.95 94.85C31.65 88.95 36.75 83.3 41.25 77.9C45.85 72.4 49.45 67.1 52.05 62C54.75 56.9 56.1 51.95 56.1 47.15C56.1 45.05 55.7 43.15 54.9 41.45C54.2 39.75 53.15 38.3 51.75 37.1C50.45 35.9 48.85 35 46.95 34.4C45.15 33.7 43.1 33.35 40.8 33.35C38.5 33.35 36.45 33.7 34.65 34.4C32.85 35 31.35 35.85 30.15 36.95C28.95 38.05 28 39.25 27.3 40.55C26.7 41.85 26.4 43.2 26.4 44.6C26.4 47.8 26.9 50.65 27.9 53.15C29 55.55 30.45 57.7 32.25 59.6L18.9 71.75C16 70.35 13.5 68 11.4 64.7C9.4 61.4 7.85 57.95 6.75 54.35C5.75 50.65 5.25 47.6 5.25 45.2C5.25 39.7 6.75 34.45 9.75 29.45C12.85 24.45 17.3 20.35 23.1 17.15C29 13.95 36.15 12.35 44.55 12.35C51.45 12.35 57.45 13.9 62.55 17C67.65 20.1 71.6 24.2 74.4 29.3C77.3 34.3 78.75 39.65 78.75 45.35C78.75 49.85 78.05 54.2 76.65 58.4C75.25 62.6 73.3 66.75 70.8 70.85C68.4 74.85 65.65 78.85 62.55 82.85C59.45 86.75 56.25 90.75 52.95 94.85L43.05 92H79.95V113H8.1ZM160.651 13.55L123.601 113H99.3012L130.051 32L137.101 34.55H93.4512V13.55H160.651Z" fill="#6D0000"/>
</g>
<path d="M11.576 136L27.512 99.28H27.896L43.832 136H35.768L25.592 110.176L30.632 106.72L18.44 136H11.576ZM22.472 123.232H33.08L35.528 129.088H20.312L22.472 123.232ZM76.2939 137.44L49.5099 113.248L51.5739 114.4L51.7179 136H44.6619V99.28H44.9499L71.1579 123.376L69.6219 122.704L69.4779 100.672H76.4859V137.44H76.2939ZM79.1038 118.384C79.1038 115.952 79.5678 113.648 80.4958 111.472C81.4238 109.296 82.7038 107.376 84.3358 105.712C85.9998 104.016 87.9198 102.688 90.0958 101.728C92.2718 100.768 94.6078 100.288 97.1038 100.288C99.5678 100.288 101.888 100.768 104.064 101.728C106.24 102.688 108.16 104.016 109.824 105.712C111.52 107.376 112.832 109.296 113.76 111.472C114.72 113.648 115.2 115.952 115.2 118.384C115.2 120.88 114.72 123.216 113.76 125.392C112.832 127.568 111.52 129.488 109.824 131.152C108.16 132.784 106.24 134.064 104.064 134.992C101.888 135.92 99.5678 136.384 97.1038 136.384C94.6078 136.384 92.2718 135.92 90.0958 134.992C87.9198 134.064 85.9998 132.784 84.3358 131.152C82.7038 129.488 81.4238 127.568 80.4958 125.392C79.5678 123.216 79.1038 120.88 79.1038 118.384ZM86.3038 118.384C86.3038 119.952 86.5758 121.424 87.1198 122.8C87.6958 124.144 88.4798 125.344 89.4718 126.4C90.4958 127.424 91.6638 128.224 92.9758 128.8C94.3198 129.376 95.7758 129.664 97.3438 129.664C98.8478 129.664 100.24 129.376 101.52 128.8C102.832 128.224 103.968 127.424 104.928 126.4C105.888 125.344 106.64 124.144 107.184 122.8C107.728 121.424 108 119.952 108 118.384C108 116.784 107.712 115.296 107.136 113.92C106.592 112.544 105.824 111.344 104.832 110.32C103.872 109.264 102.736 108.448 101.424 107.872C100.112 107.296 98.6878 107.008 97.1518 107.008C95.6158 107.008 94.1918 107.296 92.8798 107.872C91.5678 108.448 90.4158 109.264 89.4238 110.32C88.4318 111.344 87.6638 112.544 87.1198 113.92C86.5758 115.296 86.3038 116.784 86.3038 118.384ZM136.683 109.216C135.339 108.48 133.963 107.872 132.555 107.392C131.179 106.912 129.883 106.672 128.667 106.672C127.163 106.672 125.979 106.976 125.115 107.584C124.251 108.192 123.819 109.104 123.819 110.32C123.819 111.152 124.139 111.904 124.779 112.576C125.451 113.216 126.299 113.792 127.323 114.304C128.379 114.816 129.467 115.28 130.587 115.696C131.611 116.08 132.619 116.544 133.611 117.088C134.635 117.6 135.547 118.256 136.347 119.056C137.147 119.824 137.787 120.8 138.267 121.984C138.747 123.136 138.987 124.56 138.987 126.256C138.987 128.048 138.523 129.712 137.595 131.248C136.667 132.784 135.307 134.032 133.515 134.992C131.723 135.92 129.515 136.384 126.891 136.384C125.547 136.384 124.171 136.256 122.763 136C121.387 135.712 120.027 135.296 118.683 134.752C117.339 134.176 116.043 133.456 114.795 132.592L117.867 127.168C118.699 127.776 119.595 128.32 120.555 128.8C121.547 129.248 122.539 129.6 123.531 129.856C124.523 130.112 125.435 130.24 126.267 130.24C127.099 130.24 127.931 130.128 128.763 129.904C129.627 129.648 130.331 129.232 130.875 128.656C131.451 128.08 131.739 127.28 131.739 126.256C131.739 125.552 131.499 124.912 131.019 124.336C130.571 123.76 129.947 123.232 129.147 122.752C128.379 122.272 127.531 121.856 126.603 121.504C125.515 121.088 124.395 120.608 123.243 120.064C122.091 119.52 121.003 118.864 119.979 118.096C118.987 117.296 118.171 116.32 117.531 115.168C116.923 113.984 116.619 112.544 116.619 110.848C116.619 108.8 117.067 107.024 117.963 105.52C118.891 104.016 120.187 102.832 121.851 101.968C123.515 101.072 125.435 100.576 127.611 100.48C130.459 100.48 132.763 100.816 134.523 101.488C136.315 102.16 137.915 102.96 139.323 103.888L136.683 109.216Z" fill="white"/>
<defs>
<filter id="filter0_i_443_134" x="5.25" y="12.35" width="155.401" height="104.65" filterUnits="userSpaceOnUse" color-interpolation-filters="sRGB">
<feFlood flood-opacity="0" result="BackgroundImageFix"/>
<feBlend mode="normal" in="SourceGraphic" in2="BackgroundImageFix" result="shape"/>
<feColorMatrix in="SourceAlpha" type="matrix" values="0 0 0 0 0 0 0 0 0 0 0 0 0 0 0 0 0 0 127 0" result="hardAlpha"/>
<feOffset dy="4"/>
<feGaussianBlur stdDeviation="2"/>
<feComposite in2="hardAlpha" operator="arithmetic" k2="-1" k3="1"/>
<feColorMatrix type="matrix" values="0 0 0 0 0 0 0 0 0 0 0 0 0 0 0 0 0 0 0.25 0"/>
<feBlend mode="normal" in2="shape" result="effect1_innerShadow_443_134"/>
</filter>
</defs>
</svg>
