<svg width="498" height="136" viewBox="0 0 498 136" fill="none" xmlns="http://www.w3.org/2000/svg">
<g filter="url(#filter0_i_502_6)">
<path d="M10.8 135C19.0667 126.6 27 118.533 34.6 110.8C42.2 102.933 49 95.4 55 88.2C61.1333 80.8667 65.9333 73.8 69.4 67C73 60.2 74.8 53.6 74.8 47.2C74.8 44.4 74.2667 41.8667 73.2 39.6C72.2667 37.3333 70.8667 35.4 69 33.8C67.2667 32.2 65.1333 31 62.6 30.2C60.2 29.2667 57.4667 28.8 54.4 28.8C51.3333 28.8 48.6 29.2667 46.2 30.2C43.8 31 41.8 32.1333 40.2 33.6C38.6 35.0667 37.3333 36.6667 36.4 38.4C35.6 40.1333 35.2 41.9333 35.2 43.8C35.2 48.0667 35.8667 51.8667 37.2 55.2C38.6667 58.4 40.6 61.2667 43 63.8L25.2 80C21.3333 78.1333 18 75 15.2 70.6C12.5333 66.2 10.4667 61.6 9 56.8C7.66667 51.8667 7 47.8 7 44.6C7 37.2667 9 30.2667 13 23.6C17.1333 16.9333 23.0667 11.4667 30.8 7.19999C38.6667 2.93333 48.2 0.799999 59.4 0.799999C68.6 0.799999 76.6 2.86666 83.4 6.99999C90.2 11.1333 95.4667 16.6 99.2 23.4C103.067 30.0667 105 37.2 105 44.8C105 50.8 104.067 56.6 102.2 62.2C100.333 67.8 97.7333 73.3333 94.4 78.8C91.2 84.1333 87.5333 89.4667 83.4 94.8C79.2667 100 75 105.333 70.6 110.8L57.4 107H106.6V135H10.8ZM214.202 2.39999L164.802 135H132.402L173.402 27L182.802 30.4H124.602V2.39999H214.202Z" fill="#6D0000"/>
</g>
<path d="M151.536 118L194.032 20.08H195.056L237.552 118H216.048L188.912 49.136L202.352 39.92L169.84 118H151.536ZM180.592 83.952H208.88L215.408 99.568H174.832L180.592 83.952ZM324.117 121.84L252.693 57.328L258.197 60.4L258.581 118H239.765V20.08H240.533L310.421 84.336L306.325 82.544L305.941 23.792H324.629V121.84H324.117ZM331.61 71.024C331.61 64.5387 332.847 58.3947 335.322 52.592C337.797 46.7893 341.21 41.6693 345.562 37.232C349.999 32.7093 355.119 29.168 360.922 26.608C366.725 24.048 372.954 22.768 379.61 22.768C386.181 22.768 392.367 24.048 398.17 26.608C403.973 29.168 409.093 32.7093 413.53 37.232C418.053 41.6693 421.551 46.7893 424.026 52.592C426.586 58.3947 427.866 64.5387 427.866 71.024C427.866 77.68 426.586 83.9093 424.026 89.712C421.551 95.5147 418.053 100.635 413.53 105.072C409.093 109.424 403.973 112.837 398.17 115.312C392.367 117.787 386.181 119.024 379.61 119.024C372.954 119.024 366.725 117.787 360.922 115.312C355.119 112.837 349.999 109.424 345.562 105.072C341.21 100.635 337.797 95.5147 335.322 89.712C332.847 83.9093 331.61 77.68 331.61 71.024ZM350.81 71.024C350.81 75.2053 351.535 79.1307 352.986 82.8C354.522 86.384 356.613 89.584 359.258 92.4C361.989 95.1307 365.103 97.264 368.602 98.8C372.186 100.336 376.069 101.104 380.25 101.104C384.261 101.104 387.973 100.336 391.386 98.8C394.885 97.264 397.914 95.1307 400.474 92.4C403.034 89.584 405.039 86.384 406.49 82.8C407.941 79.1307 408.666 75.2053 408.666 71.024C408.666 66.7573 407.898 62.7893 406.362 59.12C404.911 55.4507 402.863 52.2507 400.218 49.52C397.658 46.704 394.629 44.528 391.13 42.992C387.631 41.456 383.834 40.688 379.738 40.688C375.642 40.688 371.845 41.456 368.346 42.992C364.847 44.528 361.775 46.704 359.13 49.52C356.485 52.2507 354.437 55.4507 352.986 59.12C351.535 62.7893 350.81 66.7573 350.81 71.024ZM485.154 46.576C481.57 44.6133 477.901 42.992 474.146 41.712C470.477 40.432 467.021 39.792 463.778 39.792C459.767 39.792 456.61 40.6027 454.306 42.224C452.002 43.8453 450.85 46.2773 450.85 49.52C450.85 51.7387 451.703 53.744 453.41 55.536C455.202 57.2427 457.463 58.7787 460.194 60.144C463.01 61.5093 465.911 62.7467 468.898 63.856C471.629 64.88 474.317 66.1173 476.962 67.568C479.693 68.9333 482.125 70.6827 484.258 72.816C486.391 74.864 488.098 77.4667 489.378 80.624C490.658 83.696 491.298 87.4933 491.298 92.016C491.298 96.7947 490.061 101.232 487.586 105.328C485.111 109.424 481.485 112.752 476.706 115.312C471.927 117.787 466.039 119.024 459.042 119.024C455.458 119.024 451.789 118.683 448.034 118C444.365 117.232 440.738 116.123 437.154 114.672C433.57 113.136 430.114 111.216 426.786 108.912L434.978 94.448C437.197 96.0693 439.586 97.52 442.146 98.8C444.791 99.9947 447.437 100.933 450.082 101.616C452.727 102.299 455.159 102.64 457.378 102.64C459.597 102.64 461.815 102.341 464.034 101.744C466.338 101.061 468.215 99.952 469.666 98.416C471.202 96.88 471.97 94.7467 471.97 92.016C471.97 90.1387 471.33 88.432 470.05 86.896C468.855 85.36 467.191 83.952 465.058 82.672C463.01 81.392 460.749 80.2827 458.274 79.344C455.373 78.2347 452.386 76.9547 449.314 75.504C446.242 74.0533 443.341 72.304 440.61 70.256C437.965 68.1227 435.789 65.52 434.082 62.448C432.461 59.2907 431.65 55.4507 431.65 50.928C431.65 45.4667 432.845 40.7307 435.234 36.72C437.709 32.7093 441.165 29.552 445.602 27.248C450.039 24.8587 455.159 23.536 460.962 23.28C468.557 23.28 474.701 24.176 479.394 25.968C484.173 27.76 488.439 29.8933 492.194 32.368L485.154 46.576Z" fill="white"/>
<defs>
<filter id="filter0_i_502_6" x="7" y="0.799988" width="207.202" height="138.2" filterUnits="userSpaceOnUse" color-interpolation-filters="sRGB">
<feFlood flood-opacity="0" result="BackgroundImageFix"/>
<feBlend mode="normal" in="SourceGraphic" in2="BackgroundImageFix" result="shape"/>
<feColorMatrix in="SourceAlpha" type="matrix" values="0 0 0 0 0 0 0 0 0 0 0 0 0 0 0 0 0 0 127 0" result="hardAlpha"/>
<feOffset dy="4"/>
<feGaussianBlur stdDeviation="2"/>
<feComposite in2="hardAlpha" operator="arithmetic" k2="-1" k3="1"/>
<feColorMatrix type="matrix" values="0 0 0 0 0 0 0 0 0 0 0 0 0 0 0 0 0 0 0.25 0"/>
<feBlend mode="normal" in2="shape" result="effect1_innerShadow_502_6"/>
</filter>
</defs>
</svg>
