<?xml version="1.0" standalone="no"?>
<!DOCTYPE svg PUBLIC "-//W3C//DTD SVG 20010904//EN"
 "http://www.w3.org/TR/2001/REC-SVG-20010904/DTD/svg10.dtd">
<svg version="1.0" xmlns="http://www.w3.org/2000/svg"
 width="1000.000000pt" height="1000.000000pt" viewBox="0 0 1000.000000 1000.000000"
 preserveAspectRatio="xMidYMid meet">

<g transform="translate(0.000000,1000.000000) scale(0.100000,-0.100000)"
fill="#000000" stroke="none">
<path d="M6385 8084 c-66 -25 -149 -56 -185 -68 -80 -29 -551 -202 -715 -263
-66 -24 -167 -62 -225 -83 -58 -21 -148 -54 -200 -73 -52 -19 -171 -63 -265
-97 -93 -34 -246 -90 -340 -125 -93 -34 -222 -81 -285 -105 -63 -23 -144 -52
-180 -65 -36 -13 -114 -42 -175 -64 -153 -55 -499 -182 -690 -253 -88 -33
-185 -68 -215 -78 -30 -10 -66 -23 -80 -29 -22 -9 -212 -78 -495 -181 -44 -16
-145 -54 -225 -84 -80 -30 -235 -87 -345 -126 -110 -40 -209 -76 -220 -80 -11
-5 -139 -52 -285 -106 -878 -321 -871 -318 -892 -349 -23 -30 -17 -42 40 -86
45 -35 401 -328 452 -373 60 -52 457 -372 585 -472 182 -141 384 -304 460
-369 33 -29 116 -98 185 -153 69 -56 132 -108 140 -115 8 -7 62 -51 119 -98
57 -46 156 -128 220 -182 64 -55 125 -106 136 -116 11 -9 76 -64 145 -122 121
-102 713 -585 812 -662 l49 -38 97 66 c53 36 171 117 262 180 91 63 228 157
305 210 77 53 187 129 245 168 58 40 177 122 265 182 163 111 389 266 525 360
41 28 192 133 335 231 143 99 307 212 365 250 58 39 211 144 340 234 129 90
294 203 365 251 158 105 571 376 677 444 42 28 121 80 175 116 122 82 339 224
548 359 231 148 260 166 470 291 72 42 155 92 185 111 30 19 161 99 290 178
271 165 285 173 365 225 32 21 82 51 109 67 51 31 78 57 70 70 -3 4 -33 16
-67 27 -34 10 -145 48 -247 84 -193 68 -214 75 -320 108 -36 12 -74 25 -85 30
-11 4 -159 55 -330 113 -170 57 -382 130 -470 161 -88 31 -223 77 -300 102
-77 24 -409 134 -738 243 -328 110 -607 200 -620 199 -12 0 -76 -20 -142 -45z
m899 -1420 c23 -9 20 -19 -10 -33 -20 -9 -30 -9 -40 0 -14 11 -20 1 -15 -25 1
-4 -9 -6 -22 -2 -17 4 -44 -4 -83 -24 -57 -29 -104 -43 -54 -16 40 21 122 68
155 88 32 19 44 21 69 12z m-104 -84 c0 -5 -5 -10 -11 -10 -5 0 -7 5 -4 10 3
6 8 10 11 10 2 0 4 -4 4 -10z m668 -148 c8 -5 -1 -8 -22 -8 -19 1 -32 4 -29 9
6 9 35 9 51 -1z m-133 -62 c-3 -5 -11 -10 -16 -10 -6 0 -7 5 -4 10 3 6 11 10
16 10 6 0 7 -4 4 -10z m-2081 -1255 c-22 -7 -59 -22 -82 -34 -23 -12 -42 -20
-42 -17 0 8 76 49 105 56 49 13 63 9 19 -5z m130 -4 c4 -5 -3 -7 -14 -4 -23 6
-26 13 -6 13 8 0 17 -4 20 -9z m-1873 -282 c-19 -11 -44 -25 -55 -30 -12 -5
-30 -15 -41 -21 -63 -41 -97 -58 -112 -58 -18 0 213 129 232 130 6 0 -5 -9
-24 -21z"/>
<path d="M7240 6640 c0 -5 4 -10 9 -10 6 0 13 5 16 10 3 6 -1 10 -9 10 -9 0
-16 -4 -16 -10z"/>
<path d="M8433 5222 c-106 -75 -193 -139 -193 -142 0 -9 177 -100 194 -100 9
0 16 8 16 19 0 10 7 24 15 31 8 7 15 24 15 38 0 33 96 225 132 262 15 17 25
30 21 30 -5 0 -95 -62 -200 -138z"/>
<path d="M7535 4748 c-38 -27 -81 -57 -95 -68 -176 -130 -317 -234 -367 -269
-35 -24 -63 -45 -63 -46 0 -8 359 -195 374 -195 3 0 3 6 0 14 -3 8 0 24 6 36
7 13 16 46 20 74 12 71 89 287 111 312 11 11 19 28 19 37 0 9 4 18 9 21 4 3
11 19 14 36 4 17 16 44 29 60 12 16 20 32 17 34 -2 2 -35 -19 -74 -46z"/>
<path d="M6703 4526 c6 -18 63 -47 81 -40 23 9 20 30 -6 39 -40 13 -79 13 -75
1z"/>
<path d="M6625 4468 c-4 -13 -8 -34 -8 -48 -1 -20 4 -25 27 -27 21 -1 26 2 22
13 -3 9 -6 31 -6 50 0 39 -23 47 -35 12z"/>
<path d="M6803 4482 c-24 -4 -30 -16 -13 -27 18 -11 11 -61 -13 -83 -27 -25
-55 -28 -82 -8 -28 21 -60 3 -43 -24 27 -43 115 -43 158 0 30 30 48 104 29
116 -5 3 -7 9 -4 14 7 12 -6 17 -32 12z"/>
<path d="M6080 3448 c-52 -40 -100 -77 -106 -83 -6 -6 -38 -31 -72 -55 -34
-25 -62 -48 -62 -51 0 -6 21 -22 139 -106 69 -50 100 -65 86 -43 -3 6 -2 10 2
10 5 0 10 16 11 36 2 20 9 60 17 89 7 30 17 75 21 102 3 26 10 53 14 58 5 6
10 19 12 30 1 11 5 22 8 25 14 13 40 60 33 60 -5 0 -51 -33 -103 -72z"/>
<path d="M2492 3481 c-10 -6 -6 -10 15 -14 33 -6 44 0 23 13 -18 12 -22 12
-38 1z"/>
<path d="M2335 3440 c-16 -5 -45 -13 -63 -18 -18 -6 -33 -10 -35 -9 -1 0 -13
-6 -27 -15 -14 -9 -42 -22 -62 -29 -21 -7 -38 -17 -38 -21 0 -12 78 -10 101 3
11 6 46 17 77 25 31 8 69 23 84 34 15 11 32 20 37 20 5 0 12 3 14 8 7 10 -52
11 -88 2z"/>
<path d="M1665 3110 c10 -11 20 -20 23 -20 3 0 -3 9 -13 20 -10 11 -20 20 -23
20 -3 0 3 -9 13 -20z"/>
<path d="M2140 2665 c7 -9 15 -13 17 -11 7 7 -7 26 -19 26 -6 0 -6 -6 2 -15z"/>
<path d="M2180 2625 c7 -9 15 -13 17 -11 7 7 -7 26 -19 26 -6 0 -6 -6 2 -15z"/>
<path d="M3150 2332 c0 -16 5 -54 11 -86 6 -32 12 -70 14 -84 1 -15 4 -27 5
-27 1 0 3 -14 4 -32 1 -18 5 -35 9 -39 4 -4 7 -19 7 -34 0 -14 5 -31 11 -37 6
-6 11 -31 11 -57 1 -25 4 -44 7 -42 11 7 6 -59 -4 -66 -6 -5 -4 -8 5 -8 11 -1
10 -4 -5 -16 -19 -16 -19 -16 5 -9 l25 7 -25 -28 c-21 -24 -17 -22 30 11 171
123 295 217 291 223 -3 6 -60 60 -247 232 -75 69 -137 120 -146 120 -5 0 -8
-13 -8 -28z"/>
<path d="M2480 2346 c0 -2 7 -6 15 -10 8 -3 15 -1 15 4 0 6 -7 10 -15 10 -8 0
-15 -2 -15 -4z"/>
<path d="M4276 2296 c-50 -49 -56 -61 -26 -53 11 3 20 2 20 -3 0 -4 11 -5 24
-3 25 5 46 44 46 84 0 29 -13 23 -64 -25z m34 -20 c0 -3 -4 -8 -10 -11 -5 -3
-10 -1 -10 4 0 6 5 11 10 11 6 0 10 -2 10 -4z"/>
<path d="M2555 2280 c10 -11 20 -20 23 -20 3 0 -3 9 -13 20 -10 11 -20 20 -23
20 -3 0 3 -9 13 -20z"/>
<path d="M4015 2096 c-88 -48 -85 -39 -25 -93 30 -26 75 -67 100 -90 26 -25
51 -41 60 -37 8 3 12 2 8 -1 -7 -7 46 -68 87 -99 l30 -23 2 25 c1 18 -1 21 -8
11 -7 -12 -11 -11 -26 4 -16 16 -16 17 0 17 10 0 14 5 11 15 -4 8 -14 15 -23
15 -13 0 -13 -2 -2 -9 7 -5 9 -11 4 -14 -4 -3 -17 1 -28 9 -10 8 -13 14 -7 14
7 0 12 5 12 10 0 6 -7 10 -15 10 -8 0 -15 7 -15 15 0 14 -11 19 -36 16 -6 -1
-17 6 -24 14 -11 13 -11 18 0 28 10 10 12 9 7 -5 -4 -12 -1 -16 13 -15 12 1
16 5 11 12 -5 5 -11 25 -14 43 -5 24 -3 32 8 32 9 0 12 -6 8 -17 -3 -10 -3
-15 1 -11 5 4 10 24 12 45 3 31 2 34 -6 16 -13 -32 -27 -29 -46 10 -9 17 -23
36 -30 40 -8 4 -14 15 -14 22 0 19 -5 18 -55 -9z"/>
<path d="M2770 2066 c0 -2 7 -9 15 -16 13 -11 14 -10 9 4 -5 14 -24 23 -24 12z"/>
<path d="M2850 1986 c0 -2 7 -9 15 -16 13 -11 14 -10 9 4 -5 14 -24 23 -24 12z"/>
<path d="M3128 1713 c6 -2 18 -2 25 0 6 3 1 5 -13 5 -14 0 -19 -2 -12 -5z"/>
</g>
</svg>
