<?xml version="1.0" standalone="no"?>
<!DOCTYPE svg PUBLIC "-//W3C//DTD SVG 20010904//EN"
 "http://www.w3.org/TR/2001/REC-SVG-20010904/DTD/svg10.dtd">
<svg version="1.0" xmlns="http://www.w3.org/2000/svg"
 width="1000.000000pt" height="1000.000000pt" viewBox="0 0 1000.000000 1000.000000"
 preserveAspectRatio="xMidYMid meet">

<g transform="translate(0.000000,1000.000000) scale(0.100000,-0.100000)"
fill="#000000" stroke="none">
<path d="M4785 9740 c-225 -36 -412 -206 -446 -405 -20 -116 -21 -152 -14
-344 l7 -194 202 8 c110 5 229 7 262 6 l62 -2 3 92 4 91 39 34 c22 19 61 44
86 57 26 12 54 34 62 48 8 14 32 39 53 54 31 24 40 27 56 17 12 -8 26 -9 43
-2 20 7 27 6 34 -6 7 -13 13 -13 36 -2 25 11 30 10 41 -6 11 -15 17 -16 36 -6
19 11 24 10 35 -5 10 -14 16 -15 34 -5 18 10 25 9 37 -3 13 -12 21 -13 40 -4
21 9 27 8 38 -7 11 -14 17 -16 35 -6 16 8 25 8 35 0 7 -6 25 -8 39 -4 15 3 32
1 41 -6 8 -6 23 -9 35 -5 12 4 28 1 36 -6 11 -9 20 -9 40 0 14 6 39 11 57 11
30 1 31 2 14 15 -14 10 -17 21 -12 43 4 22 1 36 -11 51 l-18 21 -22 -21 -22
-21 -12 22 -12 22 -22 -21 c-20 -19 -24 -20 -36 -6 -16 20 -30 19 -46 -2 -13
-17 -15 -17 -32 5 l-18 23 -19 -21 c-16 -18 -20 -19 -27 -5 -11 19 -32 19 -48
0 -11 -14 -15 -14 -32 2 -19 17 -20 16 -38 -7 -18 -24 -19 -24 -39 -6 -17 16
-23 17 -36 6 -13 -10 -19 -10 -34 4 -17 15 -19 15 -36 -4 l-19 -21 -16 21 -16
21 -19 -21 c-17 -19 -19 -19 -37 -4 -17 16 -19 16 -38 -1 -20 -18 -21 -18 -33
0 -13 17 -15 17 -39 1 -14 -9 -32 -14 -41 -11 -17 7 -86 -25 -106 -49 -19 -23
-87 -20 -126 4 -34 21 -65 73 -65 110 0 27 22 70 48 93 31 28 148 35 614 39
235 2 424 6 420 9 -4 4 -47 33 -97 66 -163 106 -403 199 -590 228 -118 18
-287 25 -350 15z m345 -64 c0 -3 -4 -8 -10 -11 -5 -3 -10 -1 -10 4 0 6 5 11
10 11 6 0 10 -2 10 -4z m110 -38 c0 -19 -2 -20 -10 -8 -13 19 -13 30 0 30 6 0
10 -10 10 -22z m-100 4 c0 -5 -6 -17 -14 -27 -13 -18 -14 -18 -9 8 5 24 23 39
23 19z m-30 -6 c0 -3 -4 -8 -10 -11 -5 -3 -10 -1 -10 4 0 6 5 11 10 11 6 0 10
-2 10 -4z m110 -7 c0 -6 -4 -8 -9 -4 -5 3 -17 -2 -25 -11 -9 -8 -16 -13 -16
-11 0 3 -2 11 -5 19 -4 9 5 14 25 15 16 1 30 -2 30 -8z m65 1 c3 -5 3 -15 -1
-21 -6 -11 -23 6 -24 24 0 10 18 9 25 -3z"/>
<path d="M5872 9372 c14 -27 18 -49 14 -84 -4 -39 -2 -46 10 -41 25 10 -3 137
-35 157 -5 3 0 -11 11 -32z"/>
<path d="M4986 9022 c-32 -64 -47 -109 -59 -177 l-6 -31 114 4 c78 3 120 0
136 -9 21 -11 47 -14 89 -10 14 1 12 28 -2 34 -43 18 262 -12 317 -30 11 -4
43 -7 70 -8 128 -3 130 -5 94 -44 -12 -12 -22 -30 -24 -39 -2 -9 -4 -17 -5
-17 -1 0 -3 -10 -6 -22 -2 -13 0 -23 6 -23 13 0 70 120 70 147 0 13 4 23 10
23 5 0 13 12 16 26 4 14 17 37 30 51 13 14 24 38 24 52 l0 25 -17 -24 c-9 -14
-22 -28 -27 -32 -13 -9 -94 -1 -153 14 -24 6 -66 8 -94 6 -28 -3 -45 -2 -39 2
6 4 -26 10 -72 14 -45 4 -126 14 -178 23 -52 8 -126 18 -164 20 -80 6 -100 20
-94 63 3 17 3 30 1 30 -1 0 -18 -31 -37 -68z"/>
<path d="M5861 9004 c0 -11 3 -14 6 -6 3 7 2 16 -1 19 -3 4 -6 -2 -5 -13z"/>
<path d="M5064 8693 c-33 -6 -55 -37 -61 -82 -6 -47 12 -83 55 -105 25 -13 32
-13 69 4 43 19 59 49 55 103 -3 34 -28 87 -42 87 -14 0 -12 -12 6 -39 13 -17
14 -28 6 -44 -6 -12 -13 -35 -17 -51 -5 -23 -3 -27 10 -22 10 3 14 2 10 -5
-11 -16 -51 -28 -74 -22 -11 3 -18 9 -15 14 3 5 -6 20 -20 34 -41 41 -30 93
24 110 11 3 20 11 20 16 0 5 -1 8 -2 8 -2 -1 -13 -4 -24 -6z"/>
<path d="M5047 8637 c-3 -9 -2 -19 4 -23 15 -9 18 -2 9 20 -6 17 -7 18 -13 3z"/>
<path d="M5676 8598 c-13 -124 -16 -222 -8 -358 5 -80 5 -150 1 -156 -5 -5 -6
-19 -3 -30 3 -12 -3 -30 -15 -45 -21 -24 -21 -24 -36 -5 -12 16 -15 56 -15
205 -1 192 -9 241 -46 282 -45 50 -172 43 -218 -12 -28 -33 -41 -24 -26 16 5
14 10 34 9 43 -1 9 -8 -3 -16 -28 -10 -32 -13 -68 -9 -127 9 -118 25 -150 25
-50 1 95 15 127 68 155 12 7 29 12 38 12 30 0 102 -58 114 -91 16 -47 15 -349
-1 -350 -56 -6 -75 -4 -90 9 -10 8 -15 19 -12 23 3 5 -3 9 -12 9 -16 0 -15 -2
2 -22 26 -31 67 -63 79 -63 5 0 18 -9 27 -21 20 -25 146 -70 159 -57 5 5 5 58
-1 129 -14 173 -12 458 4 519 8 28 12 53 9 58 -11 19 -21 2 -27 -45z m-172
-563 c3 -8 1 -15 -3 -15 -5 0 -11 7 -15 15 -3 8 -1 15 3 15 5 0 11 -7 15 -15z
m36 5 c0 -5 -5 -10 -11 -10 -5 0 -7 5 -4 10 3 6 8 10 11 10 2 0 4 -4 4 -10z"/>
<path d="M5088 8533 c7 -3 16 -2 19 1 4 3 -2 6 -13 5 -11 0 -14 -3 -6 -6z"/>
<path d="M4455 8391 c-2 -5 4 -11 14 -14 11 -3 22 1 24 7 5 13 -30 19 -38 7z"/>
<path d="M4380 8362 c0 -20 -41 -39 -59 -28 -5 3 -27 -3 -49 -14 -23 -11 -46
-20 -51 -20 -6 0 -16 -10 -22 -22 -15 -27 -4 -396 12 -432 11 -24 47 -46 76
-46 9 0 40 -12 70 -27 53 -25 57 -26 198 -20 81 3 154 11 166 18 34 18 169 49
215 49 55 0 56 6 49 241 l-6 189 25 0 c14 0 31 -9 40 -22 16 -22 16 -21 16 18
0 67 -15 78 -122 86 -51 5 -136 9 -188 11 -52 1 -101 6 -109 11 -10 6 -12 6
-7 -2 9 -14 5 -15 -28 -2 -15 6 -28 6 -31 0 -6 -10 -66 -2 -75 10 -3 3 -27 7
-55 9 -27 2 -53 5 -57 7 -5 3 -8 -4 -8 -14z m40 -6 c0 -2 -7 -6 -15 -10 -8 -3
-15 -1 -15 4 0 6 7 10 15 10 8 0 15 -2 15 -4z m47 -2 c-3 -3 -12 -4 -19 -1 -8
3 -5 6 6 6 11 1 17 -2 13 -5z m313 -408 c0 -2 -8 -10 -17 -17 -16 -13 -17 -12
-4 4 13 16 21 21 21 13z"/>
<path d="M4355 8360 c-3 -5 -1 -10 4 -10 6 0 11 5 11 10 0 6 -2 10 -4 10 -3 0
-8 -4 -11 -10z"/>
<path d="M5378 8133 c7 -3 16 -2 19 1 4 3 -2 6 -13 5 -11 0 -14 -3 -6 -6z"/>
<path d="M5064 8000 c0 -74 1 -105 3 -67 2 37 2 97 0 135 -2 37 -3 6 -3 -68z"/>
<path d="M5460 8080 c0 -5 5 -10 10 -10 6 0 10 5 10 10 0 6 -4 10 -10 10 -5 0
-10 -4 -10 -10z"/>
<path d="M5783 7845 c0 -22 2 -30 4 -17 2 12 2 30 0 40 -3 9 -5 -1 -4 -23z"/>
<path d="M5168 7466 c-76 -5 -138 -12 -138 -16 0 -4 32 -10 70 -12 39 -3 72
-7 74 -9 3 -4 13 -429 21 -889 7 -403 17 -775 21 -779 2 -2 4 15 4 38 0 23 4
40 9 36 10 -6 6 246 -4 300 -5 24 -4 27 5 15 9 -12 10 -10 4 9 -3 14 -7 286
-8 605 -1 616 0 630 44 619 22 -6 26 -18 34 -103 8 -80 8 -462 1 -485 -4 -12
-3 -15 2 -9 4 7 9 -313 11 -709 2 -457 7 -728 13 -740 19 -34 47 -56 94 -72
39 -13 54 -13 88 -3 23 6 50 20 60 30 10 10 22 16 28 13 5 -4 9 37 9 102 1
147 1 1077 0 1567 0 257 3 403 10 410 7 7 10 4 10 -7 0 -9 5 -17 11 -17 6 0 8
9 4 20 -3 11 -2 20 2 20 24 0 33 -130 34 -502 0 -235 4 -388 10 -388 7 0 15
738 10 899 -1 13 4 30 10 37 22 27 -38 35 -226 32 -99 -2 -242 -7 -317 -12z
m396 -579 c19 -1447 19 -1502 3 -1533 -37 -71 -98 -94 -163 -62 -64 31 -60
-26 -68 1061 -4 667 -3 986 4 982 5 -3 10 0 10 7 0 10 23 12 104 10 l104 -3 6
-462z"/>
<path d="M4418 7450 c-44 -3 -83 -12 -90 -19 -11 -11 -8 -12 15 -7 19 5 26 3
25 -6 -2 -7 3 -12 10 -10 10 2 11 -4 7 -19 -6 -18 -5 -20 14 -10 12 7 21 20
21 30 0 17 4 18 34 9 l34 -11 6 -236 c4 -130 11 -364 16 -521 6 -157 10 -359
10 -450 0 -203 11 -237 84 -265 67 -26 130 -5 161 54 13 26 14 95 5 573 -5
299 -12 613 -16 699 l-7 157 43 4 c30 3 49 -1 63 -13 l21 -16 -22 -14 c-27
-17 -28 -46 -2 -54 11 -3 20 -13 20 -20 0 -8 -9 -19 -20 -25 -11 -6 -20 -17
-20 -25 0 -8 9 -19 20 -25 24 -13 26 -38 5 -46 -22 -9 -18 -37 6 -52 l21 -13
-21 -23 c-26 -28 -27 -42 -1 -56 11 -6 20 -17 20 -25 0 -7 -9 -17 -20 -20 -11
-3 -20 -15 -20 -25 0 -10 9 -22 20 -25 11 -3 20 -13 20 -20 0 -8 -9 -19 -20
-25 -11 -6 -20 -17 -20 -25 0 -7 9 -17 20 -20 26 -8 25 -32 -1 -54 l-22 -18
24 -22 c20 -18 21 -24 11 -39 -24 -34 -24 -43 2 -67 31 -29 36 -30 36 -11 0 8
-7 16 -15 20 -8 3 -15 17 -15 31 0 16 6 25 15 25 8 0 15 6 15 14 0 8 -7 16
-15 20 -21 8 -19 53 3 65 15 10 15 12 1 23 -26 21 -30 57 -7 69 18 10 18 12 4
28 -19 21 -20 44 -4 70 9 15 8 22 -4 35 -16 16 -14 56 3 56 5 0 9 7 9 15 0 8
-4 15 -9 15 -17 0 -20 44 -4 62 15 17 15 19 0 36 -21 23 -22 51 -2 58 8 4 15
12 15 19 0 7 -7 15 -15 19 -8 3 -15 17 -15 31 0 16 6 25 15 25 8 0 15 7 15 15
0 8 -4 15 -10 15 -5 0 -10 4 -10 9 0 6 17 11 38 13 l37 4 -28 12 c-30 13 -365
15 -509 2z"/>
<path d="M4362 7332 c2 -9 12 -16 21 -16 13 2 16 -3 12 -17 -8 -25 1 -24 15 0
8 17 5 22 -21 35 -28 14 -30 14 -27 -2z"/>
<path d="M4375 7235 c11 -9 19 -23 17 -31 -4 -19 17 -18 25 2 7 19 -4 29 -37
38 -24 7 -25 7 -5 -9z"/>
<path d="M4373 7150 c1 -11 7 -20 14 -20 7 0 13 -7 13 -15 0 -8 5 -15 10 -15
6 0 10 9 10 20 0 11 -4 20 -9 20 -5 0 -16 7 -25 15 -13 14 -15 13 -13 -5z"/>
<path d="M4368 7063 c-5 -18 -2 -23 13 -23 13 0 19 -7 19 -21 0 -11 5 -17 10
-14 17 10 11 37 -9 42 -11 3 -21 12 -23 22 -3 12 -5 10 -10 -6z"/>
<path d="M4370 6972 c0 -5 7 -15 15 -22 8 -7 15 -21 15 -32 0 -10 5 -16 10
-13 13 8 13 45 1 45 -5 0 -17 7 -25 16 -9 8 -16 11 -16 6z"/>
<path d="M4382 6863 c9 -10 18 -27 20 -38 4 -20 4 -20 15 0 10 18 7 23 -20 39
-31 17 -31 17 -15 -1z"/>
<path d="M4376 6792 c-9 -15 27 -55 40 -44 4 4 4 -1 1 -11 -4 -11 -3 -16 3
-12 17 10 11 33 -9 40 -11 3 -21 14 -23 23 -3 13 -5 14 -12 4z"/>
<path d="M4376 6692 c-11 -11 -6 -19 20 -31 21 -9 24 -14 14 -26 -9 -11 -9
-15 -1 -15 24 0 23 31 -2 54 -14 13 -28 21 -31 18z"/>
<path d="M4854 6605 c-7 -18 3 -35 20 -35 9 0 12 9 8 25 -5 28 -20 33 -28 10z"/>
<path d="M4411 6544 c-12 -27 -11 -28 4 -12 10 9 16 21 13 28 -2 7 -10 -1 -17
-16z"/>
<path d="M4890 6546 c0 -7 -10 -21 -22 -30 l-23 -15 23 -20 c12 -10 22 -24 22
-30 0 -6 7 -11 15 -11 19 0 20 16 1 27 -22 13 -23 49 -2 72 17 19 17 21 3 21
-10 0 -17 -6 -17 -14z"/>
<path d="M4380 6503 c0 -7 8 -18 19 -24 12 -8 16 -19 13 -32 -3 -14 -1 -18 6
-13 17 10 15 46 -3 46 -7 0 -19 8 -24 18 -6 9 -11 11 -11 5z"/>
<path d="M5687 6358 c0 -77 3 -142 6 -145 8 -8 7 261 -1 274 -4 6 -6 -52 -5
-129z"/>
<path d="M4864 6415 c-7 -17 43 -71 55 -60 3 4 -2 11 -12 16 -9 6 -17 21 -17
34 0 28 -17 34 -26 10z"/>
<path d="M4387 6413 c-4 -6 0 -17 9 -24 9 -7 19 -22 23 -33 5 -13 10 -15 15
-8 4 6 -2 20 -12 30 -11 11 -21 25 -24 33 -3 9 -7 9 -11 2z"/>
<path d="M4873 6333 c-20 -7 -15 -41 7 -48 11 -3 20 -13 20 -20 0 -8 -9 -19
-20 -25 -11 -6 -20 -17 -20 -25 0 -7 9 -17 20 -20 11 -3 20 -13 20 -21 0 -8 5
-14 10 -14 14 0 13 13 -2 28 -18 18 -19 45 0 65 12 14 13 20 4 26 -7 4 -16 19
-20 33 -4 14 -13 23 -19 21z"/>
<path d="M4391 6314 c0 -11 3 -14 6 -6 3 7 2 16 -1 19 -3 4 -6 -2 -5 -13z"/>
<path d="M4414 6271 c1 -26 3 -28 16 -16 12 13 12 17 -1 31 -15 14 -16 13 -15
-15z"/>
<path d="M4385 6220 c-3 -5 -1 -10 4 -10 6 0 11 5 11 10 0 6 -2 10 -4 10 -3 0
-8 -4 -11 -10z"/>
<path d="M4418 6174 c3 -17 8 -22 15 -15 11 11 3 41 -11 41 -5 0 -7 -12 -4
-26z"/>
<path d="M5694 6055 c0 -60 1 -84 3 -52 2 32 2 81 0 110 -2 29 -3 3 -3 -58z"/>
<path d="M4869 6134 c-12 -15 -11 -19 9 -32 26 -17 29 -40 6 -49 -11 -4 -14
-14 -10 -34 13 -67 -67 -167 -155 -193 -90 -27 -175 -1 -242 73 -25 28 -37 51
-37 71 0 29 -25 70 -44 70 -5 0 0 -10 12 -23 26 -28 28 -43 5 -55 -19 -11 -11
-42 12 -42 18 0 20 -21 3 -38 -9 -9 -3 -21 27 -53 51 -53 104 -79 171 -86 68
-7 135 10 191 48 44 31 110 121 93 127 -15 6 -12 42 6 59 14 15 14 17 0 25
-20 11 -21 52 0 69 14 11 14 13 0 21 -9 5 -16 20 -16 33 0 29 -12 32 -31 9z
m-95 -323 c8 -13 -81 -54 -101 -47 -15 6 -14 8 3 20 17 12 69 33 86 35 4 1 9
-3 12 -8z"/>
<path d="M4420 6095 c10 -12 10 -18 -1 -32 -13 -16 -12 -17 4 -4 21 17 22 37
1 45 -14 5 -15 4 -4 -9z"/>
<path d="M5693 5810 c0 -36 2 -50 4 -32 2 17 2 47 0 65 -2 17 -4 3 -4 -33z"/>
<path d="M5291 5294 c0 -11 3 -14 6 -6 3 7 2 16 -1 19 -3 4 -6 -2 -5 -13z"/>
<path d="M5599 4773 c-1 -21 -2 -59 -3 -85 0 -27 -3 -48 -6 -48 -3 0 -5 -136
-4 -302 1 -167 -2 -310 -6 -318 -3 -8 -1 -53 6 -100 l11 -85 2 120 c1 66 4
170 7 230 2 61 4 126 4 145 0 19 4 64 10 100 5 36 12 94 14 130 3 36 5 67 6
70 6 23 -4 157 -12 167 -18 22 -28 14 -29 -24z"/>
<path d="M5306 4642 c-2 -4 1 -44 8 -88 l13 -79 1 88 c0 77 -7 103 -22 79z"/>
<path d="M5320 4431 c0 -12 5 -21 10 -21 6 0 10 6 10 14 0 8 -4 18 -10 21 -5
3 -10 -3 -10 -14z"/>
<path d="M5320 4389 c0 -5 5 -7 10 -4 6 3 10 8 10 11 0 2 -4 4 -10 4 -5 0 -10
-5 -10 -11z"/>
<path d="M5611 4114 c0 -11 3 -14 6 -6 3 7 2 16 -1 19 -3 4 -6 -2 -5 -13z"/>
<path d="M5584 3699 c3 -34 7 -74 7 -88 1 -14 5 -1 10 29 9 61 2 120 -14 120
-6 0 -8 -22 -3 -61z"/>
<path d="M5510 3416 c0 -13 -6 -27 -12 -29 -7 -3 -3 -6 10 -6 19 -1 22 4 20
29 -3 36 -18 41 -18 6z"/>
<path d="M5603 3400 c0 -25 2 -35 4 -22 2 12 2 32 0 45 -2 12 -4 2 -4 -23z"/>
<path d="M5596 3337 c3 -10 9 -15 12 -12 3 3 0 11 -7 18 -10 9 -11 8 -5 -6z"/>
<path d="M5517 3283 c-11 -10 -8 -53 3 -53 6 0 10 14 10 30 0 31 -2 35 -13 23z"/>
<path d="M5595 3253 c3 -12 1 -24 -5 -28 -5 -3 -10 -11 -10 -18 0 -6 7 -1 16
11 11 17 12 26 4 39 -10 16 -10 15 -5 -4z"/>
<path d="M5602 3180 c0 -14 2 -19 5 -12 2 6 2 18 0 25 -3 6 -5 1 -5 -13z"/>
<path d="M5513 3105 c0 -15 -7 -31 -14 -36 -11 -7 -11 -9 2 -9 19 0 35 48 21
62 -6 6 -9 -1 -9 -17z"/>
<path d="M5590 3109 c0 -5 -4 -8 -9 -5 -5 4 -6 -4 -3 -16 5 -19 7 -20 10 -5 2
9 8 17 13 17 5 0 9 5 9 10 0 6 -4 10 -10 10 -5 0 -10 -5 -10 -11z"/>
<path d="M5609 3074 c-1 -5 -1 -17 0 -26 2 -12 -5 -18 -21 -19 -16 0 -19 -2
-8 -7 16 -7 18 -18 21 -121 1 -44 -2 -66 -12 -72 -11 -7 -11 -11 -2 -17 9 -6
12 -50 11 -167 -1 -88 2 -173 6 -189 6 -20 6 -27 -2 -22 -17 10 -19 -16 -4
-48 11 -21 12 -34 4 -46 -5 -9 -7 -23 -2 -30 4 -7 8 -30 8 -52 1 -58 12 -60
13 -2 6 287 4 621 -4 632 -6 8 -6 12 0 12 11 0 11 165 0 176 -4 4 -8 3 -8 -2z"/>
<path d="M5518 3003 c7 -3 16 -2 19 1 4 3 -2 6 -13 5 -11 0 -14 -3 -6 -6z"/>
<path d="M5569 2988 c-6 -21 -5 -37 1 -33 5 3 11 -3 13 -12 4 -14 5 -13 6 5 0
12 -4 22 -10 22 -5 0 -7 5 -4 10 3 6 4 10 1 10 -3 0 -6 -1 -7 -2z"/>
<path d="M5515 2969 c4 -10 2 -20 -4 -24 -13 -8 -14 -25 -2 -25 16 0 24 41 11
54 -8 8 -10 7 -5 -5z"/>
<path d="M5452 2710 c0 -19 2 -27 5 -17 2 9 2 25 0 35 -3 9 -5 1 -5 -18z"/>
<path d="M5510 2706 c0 -20 5 -36 10 -36 6 0 10 13 10 29 0 17 -4 33 -10 36
-6 4 -10 -8 -10 -29z"/>
<path d="M5582 2700 c0 -14 2 -19 5 -12 2 6 2 18 0 25 -3 6 -5 1 -5 -13z"/>
<path d="M5517 2592 c2 -3 -4 -16 -12 -29 -9 -13 -11 -23 -6 -23 16 0 34 41
23 50 -5 4 -7 5 -5 2z"/>
<path d="M5441 2427 c-13 -21 -12 -21 5 -5 10 10 16 20 13 22 -3 3 -11 -5 -18
-17z"/>
<path d="M5520 2445 c-8 -45 -8 -47 2 -37 5 5 8 18 5 28 -3 11 -6 15 -7 9z"/>
<path d="M5512 2259 c-15 -24 -13 -32 7 -20 7 5 11 16 9 25 -2 14 -5 13 -16
-5z"/>
<path d="M5393 2125 c0 -27 2 -38 4 -22 2 15 2 37 0 50 -2 12 -4 0 -4 -28z"/>
<path d="M5523 2105 c0 -22 2 -30 4 -17 2 12 2 30 0 40 -3 9 -5 -1 -4 -23z"/>
<path d="M5631 2115 c-1 -16 -5 -24 -8 -17 -8 21 -25 13 -21 -10 2 -13 9 -22
16 -20 16 3 15 -8 -2 -22 -16 -12 -22 -68 -11 -104 6 -18 10 -20 16 -10 7 11
11 10 19 -2 7 -10 8 5 3 48 -5 49 -3 62 8 62 10 0 11 2 2 8 -6 4 -13 28 -16
52 -2 32 -4 37 -6 15z"/>
<path d="M5462 2105 c0 -16 2 -22 5 -12 2 9 2 23 0 30 -3 6 -5 -1 -5 -18z"/>
<path d="M5391 1984 c0 -11 3 -14 6 -6 3 7 2 16 -1 19 -3 4 -6 -2 -5 -13z"/>
<path d="M5511 1993 c3 -21 -3 -32 -18 -36 -14 -4 -13 -5 3 -6 12 0 25 6 28
15 9 23 7 34 -4 34 -5 0 -9 -3 -9 -7z"/>
<path d="M5640 1850 c0 -11 -7 -23 -15 -26 -17 -7 -22 -99 -5 -109 6 -4 10 9
10 30 0 29 3 36 15 31 12 -4 15 4 15 44 0 28 -4 50 -10 50 -5 0 -10 -9 -10
-20z"/>
<path d="M5650 1717 c0 -8 -7 -23 -16 -31 -12 -12 -13 -23 -5 -51 7 -25 6 -35
-2 -35 -6 0 0 -11 13 -23 25 -24 25 -24 33 -4 4 11 4 23 0 26 -5 3 -10 33 -12
66 -3 54 -11 92 -11 52z"/>
<path d="M5663 1508 c1 -7 -3 -12 -9 -11 -6 1 -17 -9 -24 -23 -12 -21 -11 -30
3 -59 28 -60 47 -46 47 35 0 40 -4 70 -10 70 -5 0 -9 -6 -7 -12z"/>
<path d="M5650 1280 c0 -44 3 -80 8 -80 4 0 7 36 7 80 0 44 -3 80 -7 80 -5 0
-8 -36 -8 -80z"/>
<path d="M5606 1207 c-3 -19 -6 -71 -5 -118 3 -227 0 -279 -18 -272 -9 4 -8
-6 3 -33 12 -28 14 -53 9 -94 -3 -30 -8 -76 -9 -101 -8 -110 -84 -172 -163
-132 -40 20 -47 37 -74 196 -9 53 -16 73 -22 62 -4 -8 -6 -23 -3 -33 7 -20 28
-204 28 -239 0 -13 4 -23 9 -23 4 0 6 -6 3 -14 -12 -30 43 -63 120 -72 54 -6
56 -6 91 29 20 20 35 45 35 59 0 12 7 41 14 63 15 42 23 174 32 488 4 164 2
194 -13 228 -21 48 -29 49 -37 6z"/>
<path d="M5741 974 c0 -11 3 -14 6 -6 3 7 2 16 -1 19 -3 4 -6 -2 -5 -13z"/>
<path d="M5238 650 c-7 -24 -3 -38 8 -28 3 4 4 17 2 30 l-3 23 -7 -25z"/>
<path d="M5240 596 c0 -9 5 -16 10 -16 6 0 10 4 10 9 0 6 -4 13 -10 16 -5 3
-10 -1 -10 -9z"/>
<path d="M5252 535 c0 -16 2 -22 5 -12 2 9 2 23 0 30 -3 6 -5 -1 -5 -18z"/>
<path d="M5698 530 c-3 -16 -1 -30 4 -30 4 0 8 14 8 30 0 17 -2 30 -4 30 -2 0
-6 -13 -8 -30z"/>
<path d="M5692 455 c0 -16 2 -22 5 -12 2 9 2 23 0 30 -3 6 -5 -1 -5 -18z"/>
</g>
</svg>
