<?xml version="1.0" standalone="no"?>
<!DOCTYPE svg PUBLIC "-//W3C//DTD SVG 20010904//EN"
 "http://www.w3.org/TR/2001/REC-SVG-20010904/DTD/svg10.dtd">
<svg version="1.0" xmlns="http://www.w3.org/2000/svg"
 width="500.000000pt" height="500.000000pt" viewBox="0 0 500.000000 500.000000"
 preserveAspectRatio="xMidYMid meet">

<g transform="translate(0.000000,500.000000) scale(0.100000,-0.100000)"
fill="#000000" stroke="none">
<path d="M3795 4219 c-88 -65 -179 -140 -202 -164 -23 -25 -44 -45 -47 -45 -3
0 -22 11 -42 25 -46 32 -69 31 -111 -1 -23 -18 -33 -33 -33 -53 0 -24 53 -138
106 -227 16 -28 16 -34 4 -50 -8 -9 -15 -29 -15 -43 0 -23 -5 -26 -37 -29 -33
-3 -37 -6 -40 -35 -3 -28 -6 -32 -28 -28 -55 8 -55 8 -51 -33 l3 -39 -45 7
-46 7 -3 -33 c-3 -30 -6 -33 -35 -34 -38 0 -48 -8 -48 -37 0 -19 -5 -22 -37
-20 -36 2 -37 1 -40 -35 -2 -27 -7 -36 -18 -33 -8 2 -28 6 -44 9 -27 4 -28 4
-21 -28 8 -38 -8 -54 -38 -38 -24 12 -34 2 -39 -37 -3 -29 -5 -30 -45 -27
l-42 3 6 -35 c5 -33 4 -36 -19 -36 -13 0 -29 5 -35 11 -9 9 -35 -6 -105 -56
-79 -58 -705 -529 -1046 -787 -101 -76 -125 -88 -137 -68 -13 21 -41 8 -72
-33 -64 -85 -185 -194 -387 -350 l-36 -28 20 -38 c16 -32 17 -41 6 -50 -7 -6
-114 -69 -237 -139 -225 -129 -385 -228 -426 -265 -37 -33 -30 -74 23 -153 71
-105 114 -154 133 -154 9 0 26 -7 37 -15 29 -22 45 -18 102 24 28 22 57 42 64
44 10 4 10 8 1 14 -15 10 -1 30 44 62 21 14 40 20 53 16 15 -5 21 0 25 18 4
14 23 40 42 58 26 25 32 28 24 12 -17 -33 -14 -35 19 -11 18 13 28 28 25 38
-5 17 54 70 80 70 9 0 14 4 11 8 -3 5 26 34 64 66 39 31 70 61 70 65 0 4 22 8
50 8 46 1 54 5 112 58 35 31 83 71 106 88 24 18 61 47 82 65 20 17 42 32 48
32 6 0 35 24 66 53 30 28 76 63 101 77 25 13 45 30 45 37 0 8 12 13 28 13 35
0 70 24 74 52 2 12 9 23 16 26 7 2 12 0 11 -5 -4 -22 3 -25 21 -8 14 12 18 25
14 41 -6 23 11 35 18 14 2 -7 13 -6 30 2 28 13 37 28 17 28 -6 0 -9 4 -7 9 5
12 266 229 339 281 35 25 71 52 79 60 28 26 79 60 90 60 5 0 10 4 10 8 0 5 25
26 56 48 31 21 75 55 100 74 24 19 55 44 69 55 15 11 32 25 38 30 7 6 29 21
49 33 71 44 164 130 169 157 3 15 11 19 30 17 17 -2 35 6 55 25 30 29 32 30
72 32 17 1 22 7 22 26 0 17 8 29 23 35 52 23 80 47 71 62 -3 5 6 6 20 2 21 -5
29 -1 45 28 13 21 34 39 58 47 21 8 50 27 65 43 15 17 32 26 39 23 8 -5 9 -1
4 14 -6 19 -4 21 17 16 18 -5 32 4 71 45 26 28 56 50 67 50 12 0 23 7 26 15 4
8 11 15 16 15 5 0 24 10 41 23 17 12 54 33 82 47 44 23 51 30 55 63 3 21 8 38
13 37 4 0 12 0 17 0 6 0 10 -7 10 -15 0 -8 5 -15 11 -15 7 0 8 11 4 30 -9 40
3 38 42 -7 17 -21 34 -35 38 -32 3 4 -5 34 -19 68 -16 37 -26 79 -26 110 0 57
6 64 141 163 48 35 115 84 149 111 34 26 72 47 84 47 12 0 43 -18 70 -40 26
-22 50 -40 52 -40 3 0 16 8 30 17 22 14 27 14 35 2 13 -21 11 -40 -7 -60 -16
-17 -15 -21 10 -53 14 -19 26 -39 26 -44 0 -11 23 -22 45 -22 13 0 29 52 25
84 -1 12 13 32 36 51 34 28 37 35 25 49 -19 22 -30 20 -24 -4 4 -13 -1 -26
-13 -35 -25 -19 -44 -19 -44 0 0 8 -7 15 -15 15 -26 0 -48 46 -41 85 6 28 11
35 24 31 9 -3 24 -1 32 4 21 13 1 45 -88 140 -71 77 -75 80 -119 80 -28 0 -55
-7 -71 -19 -34 -23 -151 -23 -179 0 -57 46 -139 90 -167 89 -6 -1 -83 -55
-171 -121z"/>
<path d="M3867 3403 c-2 -5 -5 -25 -5 -45 -1 -31 2 -38 17 -38 22 0 29 -25 27
-87 -1 -24 2 -43 7 -43 4 0 5 -5 2 -10 -7 -11 67 -88 153 -159 60 -49 81 -50
134 -2 l32 28 -17 57 c-17 62 -13 87 21 121 30 31 71 65 80 65 11 1 77 70 66
70 -6 0 -19 -8 -30 -18 -81 -74 -109 -78 -184 -26 -28 19 -54 33 -56 31 -3 -3
9 -31 26 -64 26 -50 32 -73 35 -144 1 -46 1 -74 -2 -62 -4 19 -9 21 -35 16
-23 -4 -33 -2 -40 11 -5 9 -13 14 -19 11 -5 -4 -9 -1 -9 4 0 6 -7 11 -15 11
-18 0 -20 17 -2 23 9 3 9 8 -2 21 -14 16 -15 16 -27 -5 -6 -13 -10 -29 -7 -36
3 -7 0 -13 -6 -13 -15 0 -14 35 1 59 17 27 -6 99 -42 132 -15 14 -31 35 -34
47 -13 40 -56 67 -69 45z m213 -343 c0 -5 -4 -10 -10 -10 -5 0 -10 5 -10 10 0
6 5 10 10 10 6 0 10 -4 10 -10z m40 -40 c0 -5 -4 -10 -9 -10 -6 0 -13 5 -16
10 -3 6 1 10 9 10 9 0 16 -4 16 -10z"/>
<path d="M3801 3298 c-7 -19 -5 -24 13 -28 12 -3 22 -15 24 -28 4 -25 24 -29
42 -7 9 11 5 21 -24 50 -19 19 -38 35 -41 35 -3 0 -9 -10 -14 -22z"/>
<path d="M3703 3235 c-10 -23 -9 -25 13 -25 14 0 30 -10 40 -25 13 -20 19 -23
30 -14 17 14 18 39 3 39 -6 0 -20 11 -31 25 -25 32 -40 32 -55 0z"/>
<path d="M3640 3192 c0 -6 -3 -17 -6 -26 -4 -11 0 -16 13 -16 11 0 29 -9 40
-19 21 -20 33 -18 33 6 0 7 -8 13 -18 13 -9 0 -22 10 -27 22 -11 23 -35 37
-35 20z"/>
<path d="M3567 3123 c-12 -12 -7 -33 8 -33 17 0 19 9 7 28 -5 7 -11 9 -15 5z"/>
<path d="M3480 3058 c0 -18 18 -34 28 -24 3 4 -2 14 -11 23 -16 16 -17 16 -17
1z"/>
<path d="M3230 2860 c0 -5 5 -10 10 -10 6 0 10 5 10 10 0 6 -4 10 -10 10 -5 0
-10 -4 -10 -10z"/>
<path d="M3145 2780 c3 -5 10 -10 16 -10 5 0 9 5 9 10 0 6 -7 10 -16 10 -8 0
-12 -4 -9 -10z"/>
<path d="M3190 2750 c0 -5 7 -10 16 -10 8 0 12 5 9 10 -3 6 -10 10 -16 10 -5
0 -9 -4 -9 -10z"/>
<path d="M3077 2675 c-26 -20 -52 -33 -57 -30 -6 3 -10 -1 -10 -9 0 -8 -10
-18 -21 -21 -12 -4 -41 -27 -65 -51 -23 -24 -46 -44 -51 -44 -4 0 -39 -29 -78
-65 -38 -35 -75 -65 -81 -65 -6 0 -21 -11 -33 -24 -12 -13 -37 -31 -55 -41
-18 -10 -41 -31 -52 -46 -10 -16 -26 -29 -35 -29 -9 0 -22 -7 -29 -15 -7 -8
-16 -15 -21 -15 -5 0 -18 -8 -28 -17 -11 -10 -27 -25 -37 -32 -13 -11 -14 -16
-4 -19 7 -3 19 3 25 12 7 9 18 16 24 16 7 0 33 16 58 35 25 19 51 35 58 35 7
0 15 7 19 15 3 8 12 15 21 15 8 0 15 4 15 9 0 8 55 41 68 41 3 0 -7 -11 -22
-25 -15 -14 -30 -25 -33 -25 -3 0 -41 -31 -84 -70 -75 -66 -99 -95 -41 -49 15
11 69 51 119 87 51 37 151 111 222 165 110 84 129 103 128 124 -1 14 4 28 11
30 6 3 12 -2 12 -11 0 -22 7 -20 53 16 40 32 40 33 16 38 -24 6 -24 6 8 23 33
18 52 52 36 68 -6 6 -28 -4 -56 -26z m-17 -84 c0 -12 -20 -25 -27 -18 -7 7 6
27 18 27 5 0 9 -4 9 -9z m-85 -71 c-10 -16 -65 -42 -65 -31 0 13 40 41 58 41
7 0 10 -5 7 -10z m-96 -72 c-28 -27 -80 -60 -86 -54 -7 7 37 45 53 46 6 0 17
7 24 15 7 9 15 13 18 11 2 -3 -2 -11 -9 -18z"/>
<path d="M2384 2127 c-12 -6 -27 -19 -33 -29 -11 -17 -10 -18 6 -9 56 32 78
64 27 38z"/>
<path d="M2230 2100 c0 -5 4 -10 9 -10 6 0 13 5 16 10 3 6 -1 10 -9 10 -9 0
-16 -4 -16 -10z"/>
<path d="M2152 2058 c-16 -16 -15 -28 3 -28 8 0 19 9 25 20 8 15 8 20 -3 20
-7 0 -18 -5 -25 -12z"/>
<path d="M2255 2030 c-3 -5 1 -10 9 -10 9 0 16 5 16 10 0 6 -4 10 -9 10 -6 0
-13 -4 -16 -10z"/>
<path d="M2056 1985 c-22 -19 -45 -35 -51 -35 -7 0 -32 -19 -55 -42 -23 -23
-51 -47 -63 -52 -27 -14 -31 -30 -12 -49 8 -9 15 -23 15 -31 0 -27 -26 -18
-55 20 -15 19 -29 33 -31 31 -5 -5 25 -65 37 -72 26 -16 -12 -94 -47 -95 -17
-1 -68 -49 -60 -57 4 -4 12 0 17 10 6 9 19 17 30 17 11 0 33 7 48 15 25 12 31
12 40 1 7 -8 21 -12 31 -9 25 7 28 68 4 77 -21 8 -14 27 18 46 30 17 198 145
243 184 16 14 26 28 23 31 -3 3 -13 -1 -21 -10 -11 -10 -25 -13 -42 -9 -33 8
-42 24 -22 39 15 11 13 26 -2 25 -3 -1 -24 -16 -45 -35z m-26 -90 c-7 -9 -15
-13 -18 -10 -3 2 1 11 8 20 7 9 15 13 18 10 3 -2 -1 -11 -8 -20z"/>
<path d="M2124 1873 c-21 -14 -58 -42 -81 -62 -23 -20 -58 -49 -78 -65 -20
-16 -33 -31 -31 -34 3 -3 25 11 48 30 24 19 59 45 79 59 47 31 112 89 107 94
-2 3 -22 -7 -44 -22z"/>
<path d="M1624 1558 c-34 -35 -74 -73 -90 -84 -16 -12 -26 -25 -22 -29 4 -4
15 3 25 15 10 11 34 31 53 43 19 12 42 27 50 34 8 7 23 19 33 26 11 8 18 22
15 36 -3 20 -10 15 -64 -41z"/>
<path d="M1197 1312 c-73 -73 -91 -105 -29 -51 22 19 53 45 71 59 39 30 58 60
39 60 -8 0 -44 -30 -81 -68z"/>
<path d="M1254 1288 l-29 -33 33 29 c30 28 37 36 29 36 -2 0 -16 -15 -33 -32z"/>
<path d="M760 1139 c0 -5 5 -7 10 -4 6 3 10 8 10 11 0 2 -4 4 -10 4 -5 0 -10
-5 -10 -11z"/>
<path d="M970 1095 c-8 -9 -8 -15 -2 -15 12 0 26 19 19 26 -2 2 -10 -2 -17
-11z"/>
<path d="M930 1059 c0 -5 5 -7 10 -4 6 3 10 8 10 11 0 2 -4 4 -10 4 -5 0 -10
-5 -10 -11z"/>
</g>
</svg>
